<svg width="24" height="18" viewBox="0 0 24 18" fill="none" xmlns="http://www.w3.org/2000/svg">
<g id="yt">
<path id="Subtract" fill-rule="evenodd" clip-rule="evenodd" d="M22.7227 1.79558C23.0951 2.17236 23.3625 2.64086 23.4982 3.15419C24 5.04887 24 9 24 9C24 9 24 12.9511 23.4982 14.8458C23.3625 15.3591 23.0951 15.8276 22.7227 16.2044C22.3503 16.5812 21.8861 16.853 21.3764 16.9927C19.5 17.5 12 17.5 12 17.5C12 17.5 4.5 17.5 2.62364 16.9927C2.11393 16.853 1.64966 16.5812 1.27729 16.2044C0.904916 15.8276 0.637506 15.3591 0.501818 14.8458C0 12.9511 0 9 0 9C0 9 0 5.04887 0.501818 3.15419C0.637506 2.64086 0.904916 2.17236 1.27729 1.79558C1.64966 1.4188 2.11393 1.14696 2.62364 1.00726C4.5 0.5 12 0.5 12 0.5C12 0.5 19.5 0.5 21.3764 1.00726C21.8861 1.14696 22.3503 1.4188 22.7227 1.79558ZM15.8181 9.00003L9.54541 5.41221V12.5879L15.8181 9.00003Z" fill="white"/>
</g>
</svg>
